<svg id="Ebene_1" data-name="Ebene 1" xmlns="http://www.w3.org/2000/svg" xmlns:xlink="http://www.w3.org/1999/xlink" viewBox="0 0 512 512"><defs><style>.cls-1{fill:none;}.cls-2{fill:#00a1ac;}.cls-3{fill:#fff;}.cls-4{clip-path:url(#clip-path);}.cls-5{clip-path:url(#clip-path-2);}.cls-6{clip-path:url(#clip-path-3);}.cls-7{clip-path:url(#clip-path-4);}.cls-8{clip-path:url(#clip-path-5);}</style><clipPath id="clip-path"><path class="cls-1" d="M197.41,485.68h0a46.9,46.9,0,0,1,6.2-14.48c46.49-115.47,180.73-167.48,252.72-180l0-.34a198.34,198.34,0,0,0-25.87-11.61c-33.85,9.19-203.78,62.2-233.12,206.45"/></clipPath><clipPath id="clip-path-2"><path class="cls-1" d="M201,460.82c-.89,6-1.8,12-2.68,18,22.82-129.66,155.75-187.27,211.85-206a260,260,0,0,0-29.63-6c-59.8,25.95-162.65,85.64-179.54,194"/></clipPath><clipPath id="clip-path-3"><path class="cls-1" d="M329.15,264.56c-73.1,46.53-113.52,100.6-123.55,165.34l-2.69,18c5-28.33,20.16-114.53,156-183.29q-7.77-.47-15.49-.46-7.2,0-14.29.4"/></clipPath><clipPath id="clip-path-4"><path class="cls-1" d="M278.28,273.74C249,302.69,220.47,337.6,210.61,396.37c-.9,6-1.8,12-2.7,18,4.51-25.63,15.08-85.65,96.78-147.15a180.76,180.76,0,0,0-26.41,6.51"/></clipPath><clipPath id="clip-path-5"><path class="cls-1" d="M254.11,284.44A91.4,91.4,0,0,0,241.68,293c-13.12,22.86-21.23,41.2-26.45,72.5l-2.7,18c3.31-18.78,10.19-57.89,48.78-102.86q-3.72,1.81-7.2,3.84"/></clipPath></defs><path class="cls-2" d="M512,502a10,10,0,0,1-10,10H10A10,10,0,0,1,0,502V131a10,10,0,0,1,10-10H168c5.5,0,11.79,4.13,14,9.18L206,185.82c2.19,5.05,8.47,9.18,14,9.18H502a10,10,0,0,1,10,10Z"/><path class="cls-3" d="M55.78,144.91l-.18.28c46.94,55.88,115.89,182,76.79,300.17a47.08,47.08,0,0,1-5.25,16.27c72.07-129.38-24.07-280.07-44.08-308.94a195.11,195.11,0,0,0-27.28-7.78"/><path class="cls-3" d="M131.54,454.62c66.37-113.78,2-243.34-28.75-293.74a254.7,254.7,0,0,1,26.52,14.47c28.94,58.28,69,170.07,11.81,263.77-3.19,5.17-6.4,10.33-9.58,15.5"/><path class="cls-3" d="M148,428c14.49-24.85,58.64-100.48-.77-240.44A259.06,259.06,0,0,1,170,206.68c25.8,82.59,21.71,149.92-12.46,205.84Z"/><path class="cls-3" d="M165.84,399.17C179,376.68,209.69,324,187,224.45a181.19,181.19,0,0,1,16,22c3.67,41,2.9,86-27.56,137.28q-4.78,7.74-9.59,15.48"/><path class="cls-3" d="M182.32,372.57c9.61-16.49,29.62-50.8,29.18-110q1.69,3.8,3,7.57a92.74,92.74,0,0,1,4,14.51c-4.75,25.91-10.42,45.14-26.65,72.43Z"/><g class="cls-4"><rect class="cls-3" x="197.41" y="279.23" width="258.99" height="206.45"/></g><g class="cls-5"><rect class="cls-3" x="198.31" y="266.79" width="211.84" height="212.02"/></g><g class="cls-6"><rect class="cls-3" x="202.91" y="264.16" width="156.02" height="183.75"/></g><g class="cls-7"><rect class="cls-3" x="207.91" y="267.23" width="96.78" height="147.15"/></g><g class="cls-8"><rect class="cls-3" x="212.53" y="280.6" width="48.78" height="102.85"/></g></svg>