<svg id="Ebene_1" data-name="Ebene 1" xmlns="http://www.w3.org/2000/svg" xmlns:xlink="http://www.w3.org/1999/xlink" viewBox="0 0 512 512"><defs><style>.cls-1{fill:none;}.cls-2,.cls-3,.cls-4{opacity:0.4;isolation:isolate;}.cls-2{fill:url(#Unbenannter_Verlauf_2);}.cls-3{fill:url(#Unbenannter_Verlauf_3);}.cls-4{fill:url(#Unbenannter_Verlauf_3-2);}.cls-5{fill:#868686;}.cls-6{fill:#08a9b1;}.cls-7{fill:#fff;}.cls-8{clip-path:url(#clip-path);}.cls-9{clip-path:url(#clip-path-2);}.cls-10{clip-path:url(#clip-path-3);}.cls-11{clip-path:url(#clip-path-4);}.cls-12{clip-path:url(#clip-path-5);}</style><linearGradient id="Unbenannter_Verlauf_2" x1="57346.28" y1="209.71" x2="57346.28" y2="-2497.15" gradientTransform="matrix(0.06, 0, 0, -0.04, -3343.47, 363)" gradientUnits="userSpaceOnUse"><stop offset="0" stop-opacity="0"/><stop offset="0.5"/><stop offset="1" stop-opacity="0"/></linearGradient><radialGradient id="Unbenannter_Verlauf_3" cx="60071.06" cy="-1127.8" r="1305.66" gradientTransform="matrix(0.06, 0, 0, -0.04, -3343.46, 363)" gradientUnits="userSpaceOnUse"><stop offset="0"/><stop offset="1" stop-opacity="0"/></radialGradient><radialGradient id="Unbenannter_Verlauf_3-2" cx="-61034.64" cy="-1127.8" r="1305.66" gradientTransform="translate(-3746.02 363) rotate(180) scale(0.06 0.04)" xlink:href="#Unbenannter_Verlauf_3"/><clipPath id="clip-path"><path class="cls-1" d="M248.08,414.65h0a33.1,33.1,0,0,1,4.41-10.29c33.05-82.09,128.48-119.07,179.66-128l0-.24a139.39,139.39,0,0,0-18.39-8.25c-24.06,6.53-144.86,44.21-165.72,146.76"/></clipPath><clipPath id="clip-path-2"><path class="cls-1" d="M250.63,397c-.64,4.26-1.28,8.54-1.91,12.79,16.22-92.18,110.72-133.13,150.6-146.44A185.26,185.26,0,0,0,378.26,259C335.75,277.49,262.63,319.92,250.63,397"/></clipPath><clipPath id="clip-path-3"><path class="cls-1" d="M341.73,257.46C289.77,290.53,261,329,253.9,375L252,387.8c3.54-20.14,14.33-81.42,110.92-130.3q-5.54-.33-11-.33-5.13,0-10.17.29"/></clipPath><clipPath id="clip-path-4"><path class="cls-1" d="M305.57,264c-20.85,20.58-41.1,45.4-48.11,87.18-.63,4.27-1.28,8.52-1.91,12.81,3.2-18.23,10.72-60.89,68.8-104.62A129.53,129.53,0,0,0,305.57,264"/></clipPath><clipPath id="clip-path-5"><path class="cls-1" d="M288.39,271.59a65.13,65.13,0,0,0-8.84,6.05c-9.32,16.26-15.09,29.29-18.8,51.54L258.83,342c2.35-13.35,7.24-41.15,34.68-73.12-1.77.86-3.47,1.77-5.12,2.73"/></clipPath></defs><g id="layer1"><g id="g6707"><rect id="rect6709" class="cls-2" x="87.1" y="354.38" width="337.81" height="111.26"/><path id="path6711" class="cls-3" d="M424.9,354.38V465.63c36,.21,87.1-24.92,87.1-55.63S471.8,354.38,424.9,354.38Z"/><path id="path6713" class="cls-4" d="M87.1,354.38V465.63C51.07,465.84,0,440.71,0,410S40.2,354.38,87.1,354.38Z"/></g><path id="path216" class="cls-5" d="M47.13,415.26c.25,4.64,5.13,9.28,9.77,9.28H406.07c4.64,0,9-4.64,8.79-9.28L404.43,111.79c-.25-4.64-5.13-9.28-9.77-9.28H246.74c-5.4,0-13.76-3.51-15.62-12.33l-6.81-32.25c-1.74-8.2-9.84-11.57-14.48-11.57H45.11c-4.64,0-9,4.64-8.79,9.28Z"/><path id="path233" class="cls-6" d="M440.16,424.43c12.75-.49,21.88-12.21,22.81-25.86,8.83-128.73,18.5-236.65,18.5-236.65.8-2.76-1.87-5.52-5.35-5.52H93L72.4,400.13c-1.28,10.94-5.2,20.11-17.28,24.33Z"/></g><path class="cls-7" d="M147.4,172.4l-.13.2C180.63,212.32,229.65,302,201.86,386a33.37,33.37,0,0,1-3.74,11.56c51.24-92-17.11-199.1-31.33-219.62a137.56,137.56,0,0,0-19.39-5.53"/><path class="cls-7" d="M201.25,392.57c47.19-80.89,1.42-173-20.43-208.82A182.58,182.58,0,0,1,199.67,194c20.57,41.43,49,120.9,8.39,187.51l-6.81,11"/><path class="cls-7" d="M213,373.65c10.31-17.66,41.69-71.42-.54-170.93a185.21,185.21,0,0,1,16.21,13.59C247,275,244.06,322.89,219.77,362.64Z"/><path class="cls-7" d="M225.64,353.15c9.33-16,31.17-53.42,15-124.21A128,128,0,0,1,252,244.56c2.62,29.14,2.07,61.14-19.59,97.58-2.26,3.68-4.54,7.35-6.81,11"/><path class="cls-7" d="M237.35,334.24c6.83-11.72,21.06-36.11,20.75-78.19q1.2,2.7,2.16,5.38a65.34,65.34,0,0,1,2.84,10.31c-3.37,18.43-7.4,32.09-18.94,51.5Z"/><g class="cls-8"><rect class="cls-7" x="248.08" y="267.89" width="184.11" height="146.76"/></g><g class="cls-9"><rect class="cls-7" x="248.72" y="259.04" width="150.6" height="150.72"/></g><g class="cls-10"><rect class="cls-7" x="251.99" y="257.17" width="110.92" height="130.63"/></g><g class="cls-11"><rect class="cls-7" x="255.55" y="259.35" width="68.8" height="104.61"/></g><g class="cls-12"><rect class="cls-7" x="258.83" y="268.86" width="34.68" height="73.12"/></g></svg>