<svg id="Ebene_1" data-name="Ebene 1" xmlns="http://www.w3.org/2000/svg" xmlns:xlink="http://www.w3.org/1999/xlink"
     viewBox="0 0 512 512">
    <defs>
        <style>
            .cls-1{fill:none;}.cls-2{fill:url(#Unbenannter_Verlauf_2);}.cls-3{fill:#d8d8d8;}.cls-4{fill:#239faa;}.cls-5{fill:#848484;}.cls-6{fill:#595958;}.cls-7{fill:#fff;}.cls-8{clip-path:url(#clip-path);}.cls-9{clip-path:url(#clip-path-2);}.cls-10{clip-path:url(#clip-path-3);}.cls-11{clip-path:url(#clip-path-4);}.cls-12{clip-path:url(#clip-path-5);}
        </style>
        <radialGradient id="Unbenannter_Verlauf_2" cx="317.96" cy="418.67" fy="233.66939283328958" r="215.59"
                        gradientTransform="matrix(0, 1.19, -0.52, 0, 456.16, 6.11)" gradientUnits="userSpaceOnUse">
            <stop offset="0.28" stop-color="#060606"/>
            <stop offset="1" stop-color="#060606" stop-opacity="0"/>
        </radialGradient>
        <clipPath id="clip-path">
            <path class="cls-1"
                  d="M282.88,425.33h0a33,33,0,0,1,4.37-10.18C320,334,414.35,297.38,465,288.57l0-.24a138.29,138.29,0,0,0-18.19-8.17C423,286.63,303.51,323.9,282.88,425.33"/>
        </clipPath>
        <clipPath id="clip-path-2">
            <path class="cls-1"
                  d="M285.4,407.85c-.62,4.21-1.26,8.45-1.88,12.65,16-91.17,109.51-131.68,149-144.84a182.11,182.11,0,0,0-20.83-4.24c-42,18.24-114.37,60.21-126.25,136.43"/>
        </clipPath>
        <clipPath id="clip-path-3">
            <path class="cls-1"
                  d="M375.51,269.85c-51.39,32.72-79.81,70.74-86.87,116.25l-1.89,12.67c3.51-19.92,14.17-80.53,109.71-128.88-3.64-.21-7.28-.32-10.89-.32q-5.07,0-10.06.28"/>
        </clipPath>
        <clipPath id="clip-path-4">
            <path class="cls-1"
                  d="M339.75,276.3c-20.62,20.36-40.65,44.91-47.59,86.23-.62,4.22-1.26,8.43-1.89,12.67,3.17-18,10.6-60.23,68.05-103.47a127,127,0,0,0-18.57,4.57"/>
        </clipPath>
        <clipPath id="clip-path-5">
            <path class="cls-1"
                  d="M322.75,283.82a65.23,65.23,0,0,0-8.74,6c-9.22,16.08-14.93,29-18.6,51l-1.89,12.66c2.32-13.2,7.16-40.7,34.3-72.32q-2.62,1.28-5.07,2.69"/>
        </clipPath>
    </defs>
    <ellipse class="cls-2" cx="255.47" cy="381.16" rx="140.54" ry="256"
             transform="translate(-147.74 600.19) rotate(-84.68)"/>
    <path id="path216" class="cls-3"
          d="M24,341.65c.21,4,4.45,8.05,8.47,8.05H335.31a8.11,8.11,0,0,0,7.63-8.05l0-263.17c-.21-4-4.44-8-8.47-8H206.16c-4.68,0-11.93-3.05-13.54-10.7l-5.91-28c-1.51-7.11-8.53-10-12.56-10H31.3a8.11,8.11,0,0,0-7.63,8.05Z"/>
    <path class="cls-4"
          d="M377.47,323.92c-.34,10.36,0,25.78-25.78,25.78H33.83c-3.54,0,12.89,0,12.89-16.11v-219a6.47,6.47,0,0,1,6.45-6.45H371a6.46,6.46,0,0,1,6.44,6.45Z"/>
    <path id="path216-2" data-name="path216" class="cls-5"
          d="M63.49,371.65c.21,4,4.45,8.05,8.47,8.05H374.77a8.11,8.11,0,0,0,7.63-8.05l0-263.18c-.21-4-4.44-8-8.47-8H245.62c-4.69,0-11.93-3-13.55-10.7l-5.91-28c-1.5-7.11-8.52-10-12.55-10H70.76a8.11,8.11,0,0,0-7.63,8.05Z"/>
    <path class="cls-4"
          d="M416.93,353.91c-.34,10.36,0,25.79-25.78,25.79H73.29c-3.54,0,12.89,0,12.89-16.12v-219a6.46,6.46,0,0,1,6.45-6.44H410.49a6.46,6.46,0,0,1,6.44,6.44Z"/>
    <path id="path216-3" data-name="path216" class="cls-6"
          d="M103.14,429.29c.23,4.42,4.88,8.84,9.3,8.84H444.89c4.42,0,8.61-4.42,8.38-8.84l0-288.94c-.23-4.41-4.88-8.83-9.3-8.83H303.1c-5.14,0-13.1-3.35-14.87-11.75l-6.49-30.7c-1.65-7.81-9.36-11-13.78-11H111.12c-4.42,0-8.6,4.42-8.37,8.83Z"/>
    <path class="cls-4"
          d="M491.18,409.83c-.38,11.37,0,28.3-28.3,28.3h-349c-3.89,0,14.16,0,14.16-17.69V180a7.1,7.1,0,0,1,7.07-7.08h349a7.1,7.1,0,0,1,7.07,7.08Z"/>
    <path class="cls-7"
          d="M183.3,185.72l-.13.19c33,39.3,81.49,128,54,211.07a33.11,33.11,0,0,1-3.7,11.43c50.68-91-16.92-196.92-31-217.22a135.92,135.92,0,0,0-19.18-5.47"/>
    <path class="cls-7"
          d="M236.56,403.49c46.68-80,1.41-171.11-20.21-206.55A180.6,180.6,0,0,1,235,207.12c20.35,41,48.49,119.59,8.3,185.47q-3.36,5.46-6.74,10.9"/>
    <path class="cls-7"
          d="M248.14,384.78c10.19-17.47,41.23-70.65-.54-169.07a182.73,182.73,0,0,1,16,13.44c18.14,58.08,15.26,105.42-8.76,144.74Z"/>
    <path class="cls-7"
          d="M260.69,364.5c9.23-15.81,30.83-52.84,14.87-122.85a126.21,126.21,0,0,1,11.24,15.44c2.59,28.82,2.05,60.47-19.37,96.52-2.24,3.63-4.5,7.27-6.74,10.89"/>
    <path class="cls-7"
          d="M272.27,345.8c6.76-11.6,20.83-35.72,20.52-77.34.8,1.77,1.5,3.55,2.14,5.32a65.82,65.82,0,0,1,2.81,10.2c-3.34,18.22-7.32,31.74-18.74,50.93Z"/>
    <g class="cls-8">
        <rect class="cls-7" x="282.88" y="280.16" width="182.11" height="145.16"/>
    </g>
    <g class="cls-9">
        <rect class="cls-7" x="283.52" y="271.42" width="148.96" height="149.08"/>
    </g>
    <g class="cls-10">
        <rect class="cls-7" x="286.75" y="269.57" width="109.71" height="129.2"/>
    </g>
    <g class="cls-11">
        <rect class="cls-7" x="290.27" y="271.73" width="68.05" height="103.47"/>
    </g>
    <g class="cls-12">
        <rect class="cls-7" x="293.52" y="281.13" width="34.3" height="72.32"/>
    </g>
</svg>
